<svg width="90" height="90" viewBox="0 0 90 90" fill="none" xmlns="http://www.w3.org/2000/svg">
<circle cx="45" cy="45" r="45" fill="#F0FFF7"/>
<path d="M23.9375 32.75H48.9062V54.7812H40.0938" stroke="#10462E" stroke-width="2.5625" stroke-miterlimit="10" stroke-linejoin="round"/>
<path d="M56.25 57.7188C57.8723 57.7188 59.1875 56.4036 59.1875 54.7813C59.1875 53.1589 57.8723 51.8438 56.25 51.8438C54.6277 51.8438 53.3125 53.1589 53.3125 54.7813C53.3125 56.4036 54.6277 57.7188 56.25 57.7188Z" stroke="#10462E" stroke-width="2.5625" stroke-miterlimit="10" stroke-linejoin="round"/>
<path d="M32.75 57.7188C34.3723 57.7188 35.6875 56.4036 35.6875 54.7813C35.6875 53.1589 34.3723 51.8438 32.75 51.8438C31.1277 51.8438 29.8125 53.1589 29.8125 54.7813C29.8125 56.4036 31.1277 57.7188 32.75 57.7188Z" stroke="#10462E" stroke-width="2.5625" stroke-miterlimit="10" stroke-linejoin="round"/>
<path d="M48.9072 54.7812V38.625H57.7197L63.5947 45.9688V54.7812H59.1885" stroke="#10462E" stroke-width="2.5625" stroke-miterlimit="10" stroke-linejoin="round"/>
<path d="M26.875 38.625H40.0937" stroke="#10462E" stroke-width="2.5625" stroke-miterlimit="10" stroke-linejoin="round"/>
<path d="M23.9375 44.5H37.1562" stroke="#10462E" stroke-width="2.5625" stroke-miterlimit="10" stroke-linejoin="round"/>
</svg>
