<svg width="25" height="25" viewBox="0 0 25 25" fill="none" xmlns="http://www.w3.org/2000/svg">
<path d="M20.1438 5.66699H6.33124L5.15106 3.55159C5.01859 3.31415 4.76799 3.16699 4.49609 3.16699H2.99609C2.58188 3.16699 2.24609 3.50278 2.24609 3.91699C2.24609 4.33121 2.58188 4.66699 2.99609 4.66699H4.05569L5.22039 6.75464L7.90646 12.6979L7.90921 12.7039L8.1458 13.2274L5.44896 16.104C5.25505 16.3109 5.19435 16.6094 5.29208 16.8755C5.38981 17.1417 5.62927 17.33 5.91095 17.3621L8.36909 17.6431C11.4438 17.9945 14.5485 17.9945 17.6231 17.6431L20.0813 17.3621C20.4928 17.3151 20.7883 16.9434 20.7413 16.5318C20.6942 16.1203 20.3225 15.8248 19.911 15.8718L17.4528 16.1528C14.4913 16.4912 11.5009 16.4912 8.53941 16.1528L7.56389 16.0413L9.54326 13.93C9.56241 13.9095 9.58019 13.8883 9.59662 13.8664L10.3494 13.9644C11.4044 14.1016 12.4707 14.1286 13.5312 14.0447C16.0047 13.8491 18.2971 12.6721 19.8976 10.7761L20.4756 10.0912C20.495 10.0682 20.5131 10.0441 20.5296 10.0189L21.6069 8.37708C22.3706 7.21332 21.5358 5.66699 20.1438 5.66699Z" fill="white" fill-opacity="0.7"/>
<path d="M7.4961 18.917C6.66767 18.917 5.9961 19.5886 5.9961 20.417C5.9961 21.2454 6.66767 21.917 7.4961 21.917C8.32452 21.917 8.9961 21.2454 8.9961 20.417C8.9961 19.5886 8.32452 18.917 7.4961 18.917Z" fill="white" fill-opacity="0.7"/>
<path d="M16.9961 20.417C16.9961 19.5886 17.6677 18.917 18.4961 18.917C19.3245 18.917 19.9961 19.5886 19.9961 20.417C19.9961 21.2454 19.3245 21.917 18.4961 21.917C17.6677 21.917 16.9961 21.2454 16.9961 20.417Z" fill="white" fill-opacity="0.7"/>
</svg>
