<svg width="19" height="19" viewBox="0 0 19 19" fill="none" xmlns="http://www.w3.org/2000/svg">
<path d="M6.18728 0.573917C5.30084 0.365986 4.37831 0.365986 3.49187 0.573917C2.33088 0.846248 1.42437 1.75276 1.15204 2.91375C0.944111 3.80019 0.944111 4.72272 1.15204 5.60916C1.42437 6.77015 2.33088 7.67666 3.49187 7.94899C4.37831 8.15692 5.30084 8.15692 6.18728 7.94899C7.34828 7.67666 8.25478 6.77015 8.52712 5.60916C8.73505 4.72272 8.73505 3.80019 8.52712 2.91375C8.25479 1.75276 7.34828 0.846248 6.18728 0.573917Z" fill="#000005" fill-opacity="0.7"/>
<path d="M6.18728 10.8869C5.30084 10.679 4.37831 10.679 3.49187 10.8869C2.33088 11.1593 1.42437 12.0658 1.15204 13.2268C0.944111 14.1132 0.944111 15.0358 1.15204 15.9222C1.42437 17.0832 2.33088 17.9897 3.49187 18.262C4.37831 18.47 5.30084 18.47 6.18728 18.262C7.34828 17.9897 8.25478 17.0832 8.52712 15.9222C8.73505 15.0357 8.73505 14.1132 8.52712 13.2268C8.25479 12.0658 7.34828 11.1593 6.18728 10.8869Z" fill="#000005" fill-opacity="0.7"/>
<path d="M16.5003 0.573917C15.6139 0.365986 14.6913 0.365986 13.8049 0.573917C12.6439 0.846248 11.7374 1.75276 11.4651 2.91375C11.2571 3.80019 11.2571 4.72272 11.4651 5.60916C11.7374 6.77015 12.6439 7.67666 13.8049 7.94899C14.6913 8.15692 15.6139 8.15692 16.5003 7.94899C17.6613 7.67666 18.5678 6.77015 18.8401 5.60916C19.0481 4.72272 19.0481 3.80019 18.8401 2.91375C18.5678 1.75276 17.6613 0.846248 16.5003 0.573917Z" fill="#000005" fill-opacity="0.7"/>
<path d="M16.5003 10.8869C15.6139 10.679 14.6913 10.679 13.8049 10.8869C12.6439 11.1593 11.7374 12.0658 11.4651 13.2268C11.2571 14.1132 11.2571 15.0358 11.4651 15.9222C11.7374 17.0832 12.6439 17.9897 13.8049 18.262C14.6913 18.47 15.6139 18.47 16.5003 18.262C17.6613 17.9897 18.5678 17.0832 18.8401 15.9222C19.0481 15.0357 19.0481 14.1132 18.8401 13.2268C18.5678 12.0658 17.6613 11.1593 16.5003 10.8869Z" fill="#000005" fill-opacity="0.7"/>
</svg>
