<svg width="24" height="24" viewBox="0 0 24 24" fill="none" xmlns="http://www.w3.org/2000/svg">
<path d="M17.2503 9.375V7.32562L18.5182 6.48038C18.7645 6.31623 18.9657 6.09275 19.103 5.8305C19.2404 5.56825 19.3095 5.27566 19.3042 4.97967C19.2988 4.68367 19.219 4.39379 19.0722 4.1367C18.9254 3.87961 18.7163 3.66358 18.4642 3.5085L15.1694 1.48125C14.3928 1.00296 13.4985 0.749798 12.5864 0.75H11.4142C10.5021 0.749798 9.60782 1.00296 8.83117 1.48125L5.53605 3.5085C5.28398 3.66368 5.07499 3.87976 4.92829 4.13686C4.7816 4.39396 4.70192 4.68382 4.69658 4.97977C4.69124 5.27573 4.76041 5.56828 4.89773 5.8305C5.03506 6.09272 5.23612 6.3162 5.48242 6.48038L6.7503 7.32562V9.375C6.75206 10.4368 7.0755 11.4732 7.67798 12.3475C8.28046 13.2218 9.13372 13.8931 10.1253 14.2729V15H8.23642C7.44473 15.0009 6.68572 15.3158 6.1259 15.8756C5.56609 16.4354 5.25119 17.1944 5.2503 17.9861V22.875C5.2503 22.9745 5.28981 23.0698 5.36013 23.1402C5.43046 23.2105 5.52584 23.25 5.6253 23.25H18.3753C18.4748 23.25 18.5701 23.2105 18.6405 23.1402C18.7108 23.0698 18.7503 22.9745 18.7503 22.875V17.9861C18.7494 17.1944 18.4345 16.4354 17.8747 15.8756C17.3149 15.3158 16.5559 15.0009 15.7642 15H13.8753V14.2729C14.8669 13.8931 15.7201 13.2218 16.3226 12.3475C16.9251 11.4732 17.2485 10.4368 17.2503 9.375ZM6.7503 6V6.42413L5.8983 5.85637C5.75672 5.76192 5.64116 5.63339 5.56224 5.4826C5.48333 5.33181 5.4436 5.16359 5.44669 4.99343C5.44979 4.82326 5.49563 4.65661 5.57998 4.50879C5.66433 4.36097 5.7845 4.23673 5.92942 4.1475L9.2253 2.11988C9.88353 1.71474 10.6413 1.50015 11.4142 1.5H12.5864C13.3593 1.50015 14.1171 1.71474 14.7753 2.11988L18.07 4.1475C18.215 4.23673 18.3351 4.36097 18.4195 4.50879C18.5038 4.65661 18.5497 4.82326 18.5528 4.99343C18.5559 5.16359 18.5161 5.33181 18.4372 5.4826C18.3583 5.63339 18.2428 5.76192 18.1012 5.85637L17.2503 6.42413V6C17.2503 5.90054 17.2108 5.80516 17.1405 5.73484C17.0701 5.66451 16.9748 5.625 16.8753 5.625H7.1253C7.02584 5.625 6.93046 5.66451 6.86013 5.73484C6.78981 5.80516 6.7503 5.90054 6.7503 6ZM16.0563 6.375C15.979 6.59359 15.8361 6.78297 15.6471 6.91722C15.458 7.05147 15.2321 7.12404 15.0003 7.125H9.0003C8.76845 7.12404 8.54256 7.05147 8.35354 6.91722C8.16451 6.78297 8.02158 6.59359 7.9443 6.375H16.0563ZM10.3203 15.75L11.4175 17.1221L10.0567 17.8027L9.80017 15.75H10.3203ZM10.8753 15.2438V14.5005C11.6161 14.6665 12.3845 14.6665 13.1253 14.5005V15.2438L12.0003 16.65L10.8753 15.2438ZM11.9849 19.5C11.4662 19.5014 10.9501 19.5755 10.4519 19.7201L9.82717 18.7313C9.8582 18.728 9.88869 18.7208 9.91792 18.7099L11.0902 18.1238L11.9849 19.5ZM8.23492 15.75H9.04267L9.31417 17.922L7.9548 15.7695C8.04817 15.757 8.14223 15.7505 8.23642 15.75H8.23492ZM6.0003 17.9861C6.00058 17.5753 6.114 17.1725 6.32813 16.8219C6.54226 16.4713 6.84882 16.1865 7.21417 15.9986L9.7308 19.983C9.53661 20.0698 9.34744 20.1675 9.16417 20.2755C9.13141 19.9341 8.98172 19.6144 8.74042 19.3706L8.2098 18.8404C8.13948 18.7701 8.04411 18.7306 7.94467 18.7306C7.84524 18.7306 7.74987 18.7701 7.67955 18.8404L6.08842 20.4315C6.04688 20.4756 6.01664 20.5291 6.0003 20.5875V17.9861ZM7.02817 22.5H6.0003V20.8061C6.01653 20.8647 6.04677 20.9185 6.08842 20.9629L6.61905 21.4931C6.82966 21.7052 7.09923 21.8489 7.39267 21.9056C7.25895 22.096 7.13722 22.2945 7.02817 22.5ZM7.1493 20.9625L6.88417 20.6974L7.94467 19.6365L8.21017 19.9016C8.27985 19.9713 8.33512 20.054 8.37283 20.145C8.41054 20.236 8.42995 20.3335 8.42995 20.4321C8.42995 20.5306 8.41054 20.6281 8.37283 20.7191C8.33512 20.8102 8.27985 20.8929 8.21017 20.9625C8.06729 21.099 7.87732 21.1751 7.67974 21.1751C7.48216 21.1751 7.29218 21.099 7.1493 20.9625ZM9.87967 22.5C10.1985 22.2418 10.5624 22.0447 10.9529 21.9188L11.3197 22.5H9.87967ZM12.2069 22.5L11.7427 21.7646C11.8282 21.7583 11.9133 21.75 12.0003 21.75C12.6277 21.7491 13.2427 21.9242 13.7755 22.2555L13.9342 22.5H12.2069ZM15.1739 22.5C14.7886 22.031 14.3042 21.6533 13.7554 21.3939C13.2067 21.1346 12.6073 21 12.0003 21C11.3933 21 10.7939 21.1346 10.2452 21.3939C9.69643 21.6533 9.21198 22.031 8.82667 22.5H7.8948C8.33496 21.81 8.94192 21.242 9.65961 20.8485C10.3773 20.455 11.1826 20.2488 12.001 20.2488C12.8195 20.2488 13.6248 20.455 14.3425 20.8485C15.0602 21.242 15.6671 21.81 16.1073 22.5H15.1739ZM18.0003 22.5H17.6253C17.4264 22.5 17.2356 22.421 17.095 22.2803C16.9543 22.1397 16.8753 21.9489 16.8753 21.75C16.8753 21.5511 16.9543 21.3603 17.095 21.2197C17.2356 21.079 17.4264 21 17.6253 21H18.0003V22.5ZM14.4273 18.7057C14.4802 18.6774 14.5255 18.6368 14.5594 18.5874C14.5933 18.5379 14.6149 18.481 14.6223 18.4215L14.9564 15.75H15.7642C16.357 15.7507 16.9254 15.9865 17.3446 16.4057C17.7638 16.8249 17.9996 17.3933 18.0003 17.9861V20.25H17.6253C17.2953 20.2513 16.975 20.3614 16.7139 20.5632C16.4528 20.7651 16.2656 21.0474 16.1812 21.3664C15.3286 20.4244 14.1845 19.796 12.9322 19.5817L11.7652 17.787L12.0003 17.6693L14.0827 18.7125C14.1363 18.7393 14.1956 18.7528 14.2556 18.752C14.3155 18.7512 14.3744 18.7359 14.4273 18.7076V18.7057ZM14.2004 15.75L13.9439 17.8027L12.583 17.1221L13.6803 15.75H14.2004ZM12.0003 13.875C10.8072 13.8737 9.66338 13.3992 8.81974 12.5556C7.97611 11.7119 7.50159 10.5681 7.5003 9.375V7.11337C7.67336 7.34877 7.89921 7.5403 8.15972 7.67257C8.42023 7.80485 8.70813 7.87418 9.0003 7.875H15.0003C15.2925 7.87418 15.5804 7.80485 15.8409 7.67257C16.1014 7.5403 16.3272 7.34877 16.5003 7.11337V9.375C16.499 10.5681 16.0245 11.7119 15.1809 12.5556C14.3372 13.3992 13.1934 13.8737 12.0003 13.875Z" fill="white" fill-opacity="0.7"/>
</svg>
