<svg width="14" height="14" viewBox="0 0 14 14" fill="none" xmlns="http://www.w3.org/2000/svg">
<path opacity="0.3" fill-rule="evenodd" clip-rule="evenodd" d="M1.16699 2.70208C1.16699 1.85428 1.85428 1.16699 2.70208 1.16699H7.85783C8.17603 1.16699 8.32916 1.55735 8.09571 1.77369L7.26609 2.54261C6.94252 2.84249 6.51768 3.00909 6.0765 3.00909H4.17577C3.53143 3.00909 3.00909 3.53143 3.00909 4.17577V9.82488C3.00909 10.4692 3.53143 10.9916 4.17577 10.9916H9.82488C10.4692 10.9916 10.9916 10.4692 10.9916 9.82488V8.02221C10.9916 7.54108 11.1897 7.08123 11.5392 6.75066L12.2432 6.08496C12.4663 5.87397 12.8337 6.03217 12.8337 6.33929V11.2986C12.8337 12.1464 12.1464 12.8337 11.2986 12.8337H2.70208C1.85428 12.8337 1.16699 12.1464 1.16699 11.2986V2.70208Z" fill="#20E682"/>
<path d="M6.37299 6.52675C6.1452 6.29896 6.1452 5.92959 6.37299 5.70179L10.5388 1.53605C10.9943 1.08043 11.7331 1.08043 12.1887 1.53605L12.4635 1.81092C12.9192 2.26653 12.9192 3.00522 12.4635 3.46084L8.29776 7.62657C8.06997 7.85436 7.70066 7.85436 7.47281 7.62657L6.37299 6.52675Z" fill="#20E682"/>
<path d="M5.1468 7.0034L4.7181 8.36163C4.588 8.77381 4.93568 9.17935 5.36289 9.11378L6.93995 8.8717C7.27058 8.82095 7.40323 8.41588 7.16669 8.17934L5.82493 6.83755C5.60827 6.6209 5.23903 6.7112 5.1468 7.0034Z" fill="#20E682"/>
</svg>
