<svg width="11" height="12" viewBox="0 0 11 12" fill="none" xmlns="http://www.w3.org/2000/svg">
<path opacity="0.3" d="M6.86128 8.80409C6.60093 8.54374 6.60093 8.12163 6.86128 7.86128C7.12163 7.60093 7.54374 7.60093 7.80409 7.86128L10.4708 10.5279C10.7311 10.7883 10.7311 11.2104 10.4708 11.4708C10.2104 11.7311 9.78829 11.7311 9.52794 11.4708L6.86128 8.80409Z" fill="#7E8299"/>
<path fill-rule="evenodd" clip-rule="evenodd" d="M0 4.99967C0 7.577 2.08934 9.66634 4.66667 9.66634C7.244 9.66634 9.33333 7.577 9.33333 4.99967C9.33333 2.42235 7.244 0.333008 4.66667 0.333008C2.08934 0.333008 0 2.42235 0 4.99967ZM8.00065 4.99935C8.00065 6.8403 6.50827 8.33268 4.66732 8.33268C2.82637 8.33268 1.33398 6.8403 1.33398 4.99935C1.33398 3.1584 2.82637 1.66602 4.66732 1.66602C6.50827 1.66602 8.00065 3.1584 8.00065 4.99935Z" fill="#7E8299"/>
</svg>
