<svg width="24" height="24" viewBox="0 0 24 24" fill="none" xmlns="http://www.w3.org/2000/svg">
<path d="M1.5 6H14.25V17.25H9.75" stroke="white" stroke-opacity="0.7" stroke-width="2.5625" stroke-miterlimit="10" stroke-linejoin="round"/>
<path d="M18 18.75C18.8284 18.75 19.5 18.0784 19.5 17.25C19.5 16.4216 18.8284 15.75 18 15.75C17.1716 15.75 16.5 16.4216 16.5 17.25C16.5 18.0784 17.1716 18.75 18 18.75Z" stroke="white" stroke-opacity="0.7" stroke-width="2.5625" stroke-miterlimit="10" stroke-linejoin="round"/>
<path d="M6 18.75C6.82843 18.75 7.5 18.0784 7.5 17.25C7.5 16.4216 6.82843 15.75 6 15.75C5.17157 15.75 4.5 16.4216 4.5 17.25C4.5 18.0784 5.17157 18.75 6 18.75Z" stroke="white" stroke-opacity="0.7" stroke-width="2.5625" stroke-miterlimit="10" stroke-linejoin="round"/>
<path d="M14.251 17.25V9H18.751L21.751 12.75V17.25H19.501" stroke="white" stroke-opacity="0.7" stroke-width="2.5625" stroke-miterlimit="10" stroke-linejoin="round"/>
<path d="M3 9H9.75" stroke="white" stroke-opacity="0.7" stroke-width="2.5625" stroke-miterlimit="10" stroke-linejoin="round"/>
<path d="M1.5 12H8.25" stroke="white" stroke-opacity="0.7" stroke-width="2.5625" stroke-miterlimit="10" stroke-linejoin="round"/>
</svg>
