<svg width="34" height="34" viewBox="0 0 34 34" fill="none" xmlns="http://www.w3.org/2000/svg">
<path d="M18.0625 28.6875V22.3125H22.3125L17 15.9375L11.6875 22.3125H15.9375V28.6875H10.625V28.6344C10.4465 28.645 10.2765 28.6875 10.0938 28.6875C7.98031 28.6875 5.95342 27.8479 4.45899 26.3535C2.96456 24.8591 2.125 22.8322 2.125 20.7188C2.125 16.6302 5.21688 13.2983 9.18425 12.8414C9.53209 11.023 10.5027 9.38266 11.9291 8.2025C13.3556 7.02234 15.1487 6.37612 17 6.375C18.8516 6.37604 20.645 7.02217 22.0718 8.20231C23.4986 9.38244 24.4696 11.0228 24.8179 12.8414C28.7852 13.2983 31.8729 16.6302 31.8729 20.7188C31.8729 22.8322 31.0333 24.8591 29.5389 26.3535C28.0445 27.8479 26.0176 28.6875 23.9041 28.6875C23.7256 28.6875 23.5535 28.645 23.3729 28.6344V28.6875H18.0625Z" fill="#10462E"/>
</svg>
